<svg width="52" height="52" viewBox="0 0 52 52" fill="none" xmlns="http://www.w3.org/2000/svg">
<circle cx="26" cy="26.272" r="24" stroke="#999999" stroke-width="3" stroke-dasharray="6 6"/>
<path d="M25.97 16.272C20.45 16.272 15.97 20.752 15.97 26.272C15.97 31.792 20.45 36.272 25.97 36.272C31.49 36.272 35.97 31.792 35.97 26.272C35.97 20.752 31.5 16.272 25.97 16.272ZM30.23 27.502C30.23 29.162 28.89 30.502 27.23 30.502H24.77C23.11 30.502 21.77 29.162 21.77 27.502V25.042C21.77 23.382 23.11 22.042 24.77 22.042H27.23C28.89 22.042 30.23 23.382 30.23 25.042V27.502Z" fill="white"/>
</svg>
