<svg width="42" height="42" viewBox="0 0 42 42" fill="none" xmlns="http://www.w3.org/2000/svg">
<path d="M27.1833 4.61994L15.5167 0.53661C14.5367 0.18661 13.4633 0.18661 12.4833 0.513277L3.17333 3.63994C1.28333 4.29328 0 6.06661 0 8.07328V35.7233C0 39.0133 3.29 41.2533 6.34667 40.0633L13.1833 37.4033C13.6967 37.1933 14.28 37.1933 14.7933 37.3799L26.46 41.4633C27.44 41.8133 28.5133 41.8133 29.4933 41.4866L38.8033 38.3599C40.6933 37.7299 41.9767 35.9333 41.9767 33.9266V6.27661C41.9767 2.98661 38.6867 0.74661 35.63 1.93661L28.7933 4.59661C28.28 4.78328 27.72 4.80661 27.1833 4.61994V4.61994ZM28 37.0766L14 32.1533V4.92328L28 9.84661V37.0766Z" fill="#E3E1E1"/>
</svg>
