<svg width="31" height="32" viewBox="0 0 31 32" fill="none" xmlns="http://www.w3.org/2000/svg">
<circle cx="15.5" cy="16" r="15" stroke="white" stroke-dasharray="2 2"/>
<path d="M15.47 6C9.94997 6 5.46997 10.48 5.46997 16C5.46997 21.52 9.94997 26 15.47 26C20.99 26 25.47 21.52 25.47 16C25.47 10.48 21 6 15.47 6ZM18.47 18.23L15.57 19.9C15.21 20.11 14.81 20.21 14.42 20.21C14.02 20.21 13.63 20.11 13.27 19.9C12.55 19.48 12.12 18.74 12.12 17.9V14.55C12.12 13.72 12.55 12.97 13.27 12.55C13.99 12.13 14.85 12.13 15.58 12.55L18.48 14.22C19.2 14.64 19.63 15.38 19.63 16.22C19.63 17.06 19.2 17.81 18.47 18.23Z" fill="white"/>
</svg>
